Patient5_TMGait_0pt45_1_right_06_GRF.mot
version=1
nRows=71
nColumns=19
inDegrees=no
endheader
time	F1x	F1y	F1z	M1x	M1y	M1z	F2x	F2y	F2z	M2x	M2y	M2z	EC1x	EC1y	EC1z	EC2x	EC2y	EC2z
9.62	13.4912	863.3041	34.4622	-309.3705	-22.5903	811.341	-5.4925	2.474	1.1734	0.32053	-0.74486	7.4027	-0.0592	0.0182	-0.0073	-0.0462	0.0165	0.9585
9.6357	12.63	864.1483	32.7831	-309.1678	-22.5119	810.0538	-3.1849	2.0245	0.80466	0.42395	-0.54812	5.1696	-0.0592	0.0182	-0.0073	-0.0462	0.0165	0.9585
9.6514	12.5749	863.9875	31.2182	-308.6744	-22.154	807.0033	-1.3913	1.6862	0.51049	0.50987	-0.38386	3.3991	-0.0592	0.0182	-0.0073	-0.0462	0.0165	0.9585
9.6671	13.3242	862.8561	29.9482	-307.9185	-21.5968	802.3854	-0.20387	1.4743	0.29919	0.57369	-0.2512	2.2101	-0.0592	0.0182	-0.0073	-0.0462	0.0165	0.9585
9.6829	14.6787	861.0629	29.0434	-306.9895	-20.9614	796.7173	0.45616	1.3795	0.16537	0.62121	-0.15601	1.5559	-0.0592	0.0182	-0.0073	-0.0462	0.0165	0.9585
9.6986	16.4071	858.9607	28.5175	-305.9876	-20.3618	790.5296	0.729	1.3818	0.08642	0.66332	-0.092142	1.2979	-0.0592	0.0182	-0.0073	-0.0462	0.0165	0.9585
9.7143	18.3474	856.804	28.338	-304.9876	-19.8585	784.1876	0.76046	1.451	0.046057	0.70713	-0.053552	1.2809	-0.0592	0.0182	-0.0073	-0.0462	0.0165	0.9585
9.73	20.4429	854.7188	28.4414	-304.0314	-19.4469	777.8606	0.66804	1.5571	0.037102	0.75452	-0.038582	1.3885	-0.0592	0.0182	-0.0073	-0.0462	0.0165	0.9585
9.7457	22.718	852.754	28.7766	-303.1388	-19.0991	771.5833	0.52931	1.6815	0.03907	0.80386	-0.032266	1.5553	-0.0592	0.0182	-0.0073	-0.0462	0.0165	0.9585
9.7614	25.2283	850.9086	29.3336	-302.3101	-18.793	765.3289	0.39115	1.7982	0.045082	0.84343	-0.029696	1.7337	-0.0592	0.0182	-0.0073	-0.0462	0.0165	0.9585
9.7771	28.0262	849.1222	30.1461	-301.5224	-18.5351	759.0209	0.28059	1.8328	0.064054	0.84186	-0.042233	1.8394	-0.0592	0.0182	-0.0073	-0.0462	0.0165	0.9585
9.7929	31.1463	847.3224	31.2701	-300.7436	-18.3579	752.5779	0.20143	1.6401	0.092431	0.74218	-0.069864	1.7035	-0.0592	0.0182	-0.0073	-0.0462	0.0165	0.9585
9.8086	34.6479	845.4341	32.7479	-299.9438	-18.2844	745.8996	0.15511	1.0274	0.1303	0.47027	-0.11841	1.1028	-0.0592	0.0182	-0.0073	-0.0462	0.0165	0.9585
9.8243	38.5766	843.4069	34.594	-299.1026	-18.3302	738.9244	0.15779	-0.21986	0.16623	-0.057445	-0.18333	-0.20498	-0.0592	0.0182	-0.0073	-0.0462	0.0165	0.9585
9.84	42.9278	841.1883	36.7819	-298.204	-18.4949	731.6379	0.23165	-2.2705	0.1887	-0.9101	-0.2578	-2.4017	-0.0592	0.0182	-0.0073	-0.0462	0.0165	0.9585
9.8557	47.7116	838.7086	39.2547	-297.2368	-18.744	724.0128	0.40265	-5.1422	0.19684	-2.0981	-0.35092	-5.4998	-0.0592	0.0182	-0.0073	-0.0462	0.0165	0.9585
9.8714	52.9442	835.9602	41.9187	-296.2222	-19.0073	716.0777	0.70057	-8.5243	0.18746	-3.4981	-0.47103	-9.1666	-0.0592	0.0182	-0.0073	-0.0462	0.0165	0.9585
9.8871	58.6324	833.0094	44.6354	-295.2121	-19.176	707.9147	1.1365	-11.4964	0.16575	-4.7328	-0.6257	-12.3937	-0.0592	0.0182	-0.0073	-0.0462	0.0165	0.9585
9.9029	64.7867	829.8992	47.257	-294.2514	-19.1285	699.5693	1.6782	-12.2376	0.12895	-5.0544	-0.79575	-13.199	-0.0592	0.0182	-0.0073	-0.0462	0.0165	0.9585
9.9186	71.3781	826.5445	49.6234	-293.3256	-18.7284	690.9966	2.201	-7.7794	0.088218	-3.2419	-0.93288	-8.3563	-0.0592	0.0182	-0.0073	-0.0462	0.0165	0.9585
9.9343	78.3398	822.6721	51.5539	-292.3317	-17.8208	682.0167	2.4476	6.034	0.074874	2.41	-0.94787	6.6444	-0.0592	0.0182	-0.0073	-0.0462	0.0165	0.9585
9.95	85.5479	817.8372	52.8324	-291.0996	-16.2485	672.3213	1.9854	34.0519	0.12884	13.893	-0.68712	37.0861	-0.0592	0.0182	-0.0073	-0.0462	0.0165	0.9585
9.9657	92.748	811.469	53.1548	-289.4178	-13.8323	661.5427	0.19879	80.4644	0.32712	32.9357	0.048507	87.5435	-0.0592	0.0182	-0.0073	-0.0462	0.0165	0.9585
9.9814	99.4978	802.7943	52.1248	-287.0015	-10.3877	649.2002	-3.6585	146.177	0.75144	59.9268	1.5009	159.0218	-0.0592	0.0182	-0.0073	-0.0462	0.0165	0.9585
9.9971	105.1895	790.4449	49.3444	-283.3433	-5.8021	634.3838	-10.2367	225.1581	1.4535	92.4093	3.853	245.0252	-0.0592	0.0182	-0.0073	-0.0462	0.0165	0.9585
10.0129	109.1739	772.0212	44.5962	-277.5527	-0.14318	615.3749	-19.7177	303.5174	2.0241	124.5691	7.5285	330.6516	-0.0592	0.0182	-0.0073	-0.0462	0.0165	0.9585
10.0286	110.9409	744.4821	38.0334	-268.4767	6.2469	589.9089	-30.5412	364.7251	-0.35894	149.2599	14.671	398.1203	-0.0592	0.0182	-0.0073	-0.0462	0.0165	0.9585
10.0443	110.2919	705.3491	30.312	-255.1202	12.7333	556.0843	-40.508	402.5966	-7.6264	163.6538	26.3123	440.6105	-0.0592	0.0182	-0.0073	-0.0462	0.0165	0.9585
10.06	107.2958	653.7431	22.5843	-237.0292	18.4278	513.2212	-48.6807	424.0373	-17.8944	170.6834	40.2306	465.2784	-0.0592	0.0182	-0.0073	-0.0462	0.0165	0.9585
10.0757	102.0249	590.4568	16.025	-214.3909	22.4329	461.9321	-55.0436	437.9467	-28.325	174.3836	53.5672	481.4209	-0.0592	0.0182	-0.0073	-0.0462	0.0165	0.9585
10.0914	94.3889	517.7573	11.0802	-188.033	24.3199	403.9763	-59.5944	451.558	-36.6345	178.1225	63.9976	496.4249	-0.0592	0.0182	-0.0073	-0.0462	0.0165	0.9585
10.1071	84.286	439.1769	7.5252	-159.3292	24.1358	342.0942	-61.954	470.7311	-41.7248	184.5661	70.2402	516.0788	-0.0592	0.0182	-0.0073	-0.0462	0.0165	0.9585
10.1229	71.9219	359.0986	4.9254	-129.9989	22.2041	279.6149	-61.8698	499.41	-44.2971	195.4107	72.8464	544.2543	-0.0592	0.0182	-0.0073	-0.0462	0.0165	0.9585
10.1386	57.9938	282.1501	2.9408	-101.832	19.0119	219.9657	-59.6044	539.119	-45.3144	211.2771	72.8747	582.4154	-0.0592	0.0182	-0.0073	-0.0462	0.0165	0.9585
10.1543	43.6463	212.4086	1.4558	-76.3717	15.0946	166.102	-56.0085	589.2879	-45.3367	231.8962	71.2418	629.9879	-0.0592	0.0182	-0.0073	-0.0462	0.0165	0.9585
10.17	30.2081	152.6971	0.41462	-54.6653	11.0405	120.0222	-52.015	647.6864	-44.9143	256.267	68.8815	684.8063	-0.0592	0.0182	-0.0073	-0.0462	0.0165	0.9585
10.1857	18.7126	104.3652	-0.25888	-37.195	7.3441	82.6501	-48.0176	710.4003	-44.5397	282.6649	66.4648	742.9719	-0.0592	0.0182	-0.0073	-0.0462	0.0165	0.9585
10.2014	9.712	67.3108	-0.61008	-23.893	4.283	53.8895	-43.9261	772.046	-44.7525	308.7445	64.5013	799.105	-0.0592	0.0182	-0.0073	-0.0462	0.0165	0.9585
10.2171	3.3459	40.3125	-0.70168	-14.2708	1.9845	32.8452	-39.4407	826.8445	-45.6001	332.022	62.9278	847.49	-0.0592	0.0182	-0.0073	-0.0462	0.0165	0.9585
10.2329	-0.51564	21.6627	-0.60217	-7.6666	0.45815	18.2459	-34.1794	869.8997	-46.6509	350.4157	61.1894	883.3931	-0.0592	0.0182	-0.0073	-0.0462	0.0165	0.9585
10.2486	-2.1954	9.6646	-0.42886	-3.4404	-0.32157	8.8117	-27.7642	897.9943	-47.7266	362.5268	58.9728	903.8778	-0.0592	0.0182	-0.0073	-0.0462	0.0165	0.9585
10.2643	-2.323	2.8541	-0.28809	-1.056	-0.50018	3.4111	-19.9826	910.1198	-48.9074	367.8515	56.2733	908.306	-0.0592	0.0182	-0.0073	-0.0462	0.0165	0.9585
10.28	-1.6822	-0.17913	-0.18702	-0.0029645	-0.36338	0.9538	-11.0576	907.7686	-50.3721	366.9448	53.3652	898.5464	-0.0592	0.0182	-0.0073	-0.0462	0.0165	0.9585
10.2957	-0.81553	-0.81688	-0.13391	0.21559	-0.09933	0.40451	-1.8531	894.7248	-52.1365	361.3723	50.6466	878.7111	-0.0592	0.0182	-0.0073	-0.0462	0.0165	0.9585
10.3114	-0.016531	-0.18969	-0.12144	0.00015453	0.17646	0.89508	6.2765	875.9303	-53.869	353.242	48.3868	853.9506	-0.0592	0.0182	-0.0073	-0.0462	0.0165	0.9585
10.3271	0.59689	0.90116	-0.13973	-0.37435	0.41151	1.7682	12.1977	855.7996	-55.2061	344.4797	46.7244	828.7157	-0.0592	0.0182	-0.0073	-0.0462	0.0165	0.9585
10.3429	1.0029	1.9803	-0.17606	-0.74477	0.58879	2.6233	15.6155	837.3977	-55.9066	336.44	45.5601	805.9299	-0.0592	0.0182	-0.0073	-0.0462	0.0165	0.9585
10.3586	1.2318	2.789	-0.19476	-1.019	0.68833	3.2392	17.0896	822.5951	-55.976	329.9341	44.6681	787.1978	-0.0592	0.0182	-0.0073	-0.0462	0.0165	0.9585
10.3743	1.3367	3.1686	-0.17318	-1.1405	0.7062	3.4642	17.6154	812.3623	-55.6823	325.3519	43.8787	773.1766	-0.0592	0.0182	-0.0073	-0.0462	0.0165	0.9585
10.39	1.3699	2.9935	-0.082298	-1.0637	0.62336	3.1639	18.1298	806.9288	-55.2636	322.7604	43.0057	763.8307	-0.0592	0.0182	-0.0073	-0.0462	0.0165	0.9585
10.4057	1.363	2.1402	0.10206	-0.7413	0.41288	2.1877	19.3506	805.8869	-54.8683	321.9734	41.8771	758.5492	-0.0592	0.0182	-0.0073	-0.0462	0.0165	0.9585
10.4214	1.3256	0.50547	0.38171	-0.13227	0.066886	0.38145	21.7442	808.4871	-54.5703	322.6729	40.3658	756.4416	-0.0592	0.0182	-0.0073	-0.0462	0.0165	0.9585
10.4371	1.2234	-1.9094	0.73932	0.7689	-0.4069	-2.3089	25.5139	813.9177	-54.3765	324.5182	38.4069	756.6248	-0.0592	0.0182	-0.0073	-0.0462	0.0165	0.9585
10.4529	0.98653	-4.8647	1.0883	1.8748	-0.92974	-5.6501	30.5568	821.5342	-54.2885	327.2304	36.0687	758.4651	-0.0592	0.0182	-0.0073	-0.0462	0.0165	0.9585
10.4686	0.5387	-7.6714	1.2615	2.9186	-1.3277	-8.8817	36.442	830.8132	-54.2771	330.5715	33.5246	761.5564	-0.0592	0.0182	-0.0073	-0.0462	0.0165	0.9585
10.4843	-0.19479	-8.9165	0.99334	3.3502	-1.3063	-10.4155	42.4903	841.0009	-54.2945	334.2072	31.0176	765.3672	-0.0592	0.0182	-0.0073	-0.0462	0.0165	0.9585
10.5	-1.241	-6.2341	-0.1086	2.2551	-0.40671	-7.5681	47.8658	850.8606	-54.2942	337.6077	28.8358	769.016	-0.0592	0.0182	-0.0073	-0.0462	0.0165	0.9585
10.5157	-2.507	3.7849	-2.5322	-1.668	1.9874	3.5201	51.7445	858.6523	-54.1915	340.0492	27.2127	771.2285	-0.0592	0.0182	-0.0073	-0.0462	0.0165	0.9585
10.5314	-3.6983	25.2967	-6.7519	-9.9868	6.5569	27.5852	53.5199	862.1379	-53.8992	340.6258	26.2843	770.2951	-0.0592	0.0182	-0.0073	-0.0462	0.0165	0.9585
10.5471	-4.1998	62.2193	-12.9937	-24.1523	13.8204	69.151	52.916	858.6954	-53.3127	338.3081	26.0426	764.1035	-0.0592	0.0182	-0.0073	-0.0462	0.0165	0.9585
10.5629	-2.9946	116.2403	-20.8084	-44.737	23.6701	130.2786	49.971	845.6252	-52.2592	332.0755	26.3019	750.3684	-0.0592	0.0182	-0.0073	-0.0462	0.0165	0.9585
10.5786	0.25737	184.4803	-28.5213	-70.5475	34.3187	207.8672	44.9795	820.6947	-50.5397	321.1306	26.7751	727.1055	-0.0592	0.0182	-0.0073	-0.0462	0.0165	0.9585
10.5943	2.5129	258.4243	-33.0056	-98.2427	41.02	292.426	38.4757	782.8434	-47.9195	305.1674	27.0676	693.237	-0.0592	0.0182	-0.0073	-0.0462	0.0165	0.9585
10.61	0.36751	326.8487	-31.1698	-123.5161	38.9163	371.5577	31.1938	732.497	-44.2379	284.4757	26.7784	648.8897	-0.0592	0.0182	-0.0073	-0.0462	0.0165	0.9585
10.6257	-5.8232	383.4689	-22.9529	-144.0344	28.0051	438.0997	23.9394	671.6237	-39.4602	259.9281	25.5864	595.4998	-0.0592	0.0182	-0.0073	-0.0462	0.0165	0.9585
10.6414	-14.1261	429.006	-11.133	-160.2392	12.1716	492.4196	17.4363	603.3576	-33.732	232.8058	23.3392	535.5684	-0.0592	0.0182	-0.0073	-0.0462	0.0165	0.9585
10.6571	-22.5775	467.841	1.1835	-173.9904	-4.3342	539.0374	12.0904	531.2302	-27.3909	204.4891	20.1544	472.0693	-0.0592	0.0182	-0.0073	-0.0462	0.0165	0.9585
10.6729	-29.6147	503.4116	11.1532	-186.8028	-17.7464	581.5658	7.9189	458.6782	-20.8545	176.2722	16.3588	408.0255	-0.0592	0.0182	-0.0073	-0.0462	0.0165	0.9585
10.6886	-34.6657	536.7028	17.6062	-199.1771	-26.5085	620.9756	4.6488	388.9351	-14.5499	149.3412	12.3862	346.3775	-0.0592	0.0182	-0.0073	-0.0462	0.0165	0.9585
10.7043	-37.6867	567.9268	20.8498	-211.182	-30.9592	657.3809	1.9287	324.8266	-8.9038	124.7083	8.7073	289.7269	-0.0592	0.0182	-0.0073	-0.0462	0.0165	0.9585
10.72	-39.0293	597.6448	22.2329	-222.892	-32.7436	691.3697	-0.43076	268.3603	-4.3021	103.0689	5.7019	239.8716	-0.0592	0.0182	-0.0073	-0.0462	0.0165	0.9585
